<svg id="visual" viewBox="0 0 900 900" width="900" height="900" xmlns="http://www.w3.org/2000/svg" xmlns:xlink="http://www.w3.org/1999/xlink" version="1.1"><g transform="translate(408.23440526238517 486.1527884872081)"><path d="M150.9 -275.9C208.1 -228.4 275.5 -213.2 301.7 -172.6C328 -132 313 -66 332.5 11.2C352 88.5 405.9 177 380.4 218.9C354.9 260.7 250 255.9 173.3 279.7C96.7 303.4 48.3 355.7 -15.3 382.3C-79 408.8 -158 409.7 -211.5 372.6C-265.1 335.5 -293.2 260.5 -301 192.1C-308.9 123.7 -296.4 61.8 -294.3 1.3C-292.1 -59.3 -300.2 -118.7 -299.7 -199.9C-299.3 -281 -290.3 -384.1 -238.9 -434.9C-187.5 -485.8 -93.8 -484.4 -23.4 -443.8C46.9 -403.2 93.8 -323.4 150.9 -275.9" fill="#ED6A5A"></path></g></svg>